<?xml version="1.0" encoding="UTF-8" standalone="no"?>

<svg
   xmlns:dc="http://purl.org/dc/elements/1.1/"
   xmlns:cc="http://creativecommons.org/ns#"
   xmlns:rdf="http://www.w3.org/1999/02/22-rdf-syntax-ns#"
   xmlns:svg="http://www.w3.org/2000/svg"
   xmlns="http://www.w3.org/2000/svg"
   xmlns:sodipodi="http://sodipodi.sourceforge.net/DTD/sodipodi-0.dtd"
   xmlns:inkscape="http://www.inkscape.org/namespaces/inkscape"
   version="1.1"
   id="svg2"
   xml:space="preserve"
   width="180.4263"
   height="187.9023"
   viewBox="0 0 180.4263 187.9023"
   inkscape:version="0.92.3 (2405546, 2018-03-11)"><metadata
     id="metadata8"><rdf:RDF><cc:Work
         rdf:about=""><dc:format>image/svg+xml</dc:format><dc:type
           rdf:resource="http://purl.org/dc/dcmitype/StillImage" /></cc:Work></rdf:RDF></metadata><defs
     id="defs6"><inkscape:perspective
       sodipodi:type="inkscape:persp3d"
       inkscape:vp_x="0 : 186.66667 : 1"
       inkscape:vp_y="0 : 1000 : 0"
       inkscape:vp_z="466.66666 : 186.66667 : 1"
       inkscape:persp3d-origin="233.33333 : 124.44445 : 1"
       id="perspective849" /><clipPath
       clipPathUnits="userSpaceOnUse"
       id="clipPath18"><path
         d="M 0,280 H 350 V 0 H 0 Z"
         id="path16"
         inkscape:connector-curvature="0" /></clipPath></defs><sodipodi:namedview
     pagecolor="#ffffff"
     bordercolor="#666666"
     borderopacity="1"
     objecttolerance="10"
     gridtolerance="10"
     guidetolerance="10"
     inkscape:pageopacity="0"
     inkscape:pageshadow="2"
     inkscape:window-width="1117"
     inkscape:window-height="883"
     id="namedview4"
     showgrid="false"
     inkscape:zoom="0.89398499"
     inkscape:cx="208.09324"
     inkscape:cy="108.93528"
     inkscape:window-x="0"
     inkscape:window-y="27"
     inkscape:window-maximized="0"
     inkscape:current-layer="g14" /><g
     id="g10"
     inkscape:groupmode="layer"
     inkscape:label="lion-1574448"
     transform="matrix(1.3333333,0,0,-1.3333333,-6.7077038,366.1678)"><g
       id="g12"><g
         id="g14"
         clip-path="url(#clipPath18)"><g
           id="g20"
           transform="translate(138.81677,239.70913)"><path
             d="m 0,0 -22.862,13.861 22.699,-5.58 -34.061,21.781 -31.943,4.85473 -31.924,-4.85473 -30.243,-20.701 18.902,4.5 L -132.293,0 c 0,0 -6.48,-25.562 7.56,-45.544 l 8.641,12.421 -0.361,-23.401 18.239,-18.001 4.919,7.199 v -12.239 l 27.066,-26.445 h 0.082 l 28.852,26.445 v 12.239 l 4.066,-7.199 17.735,18.001 -0.533,23.401 8.554,-12.421 C 6.566,-25.562 0,0 0,0"
             style="fill:#335284;fill-opacity:1;fill-rule:nonzero;stroke:none"
             id="path22"
             inkscape:connector-curvature="0"
             sodipodi:nodetypes="cccccccccccccccccccccccc" /></g><g
           id="g24"
           transform="translate(53.811468,186.04403)"><path
             d="M 0,0 C 0,0 0.906,-1.952 4.017,-1.554 L 4.903,3.632 Z"
             style="fill:#9fb1bf;fill-opacity:1;fill-rule:nonzero;stroke:none"
             id="path26"
             inkscape:connector-curvature="0" /></g><g
           id="g28"
           transform="translate(88.549168,212.79993)"><path
             d="M 0,0 C 0,0 4.694,-5.909 8.018,-13.233 L 6.6,-3.695 C 14.227,-0.215 17.218,4.936 18.265,7.408 14.438,4.21 7.163,-0.813 0,0"
             style="fill:#9fb1bf;fill-opacity:1;fill-rule:nonzero;stroke:none"
             id="path30"
             inkscape:connector-curvature="0" /></g><g
           id="g32"
           transform="translate(98.613669,228.70373)"><path
             d="m 0,0 -0.015,0.012 -3.812,-1.997 c -1.271,-7.989 -8.717,-7.264 -8.717,-7.264 l -0.213,-2.182 C -8.982,-12.409 -0.916,-12.935 0,0"
             style="fill:#9fb1bf;fill-opacity:1;fill-rule:nonzero;stroke:none"
             id="path34"
             inkscape:connector-curvature="0" /></g><g
           id="g36"
           transform="translate(91.515968,186.04403)"><path
             d="m 0,0 -4.901,3.632 0.885,-5.186 C -0.904,-1.952 0,0 0,0"
             style="fill:#9fb1bf;fill-opacity:1;fill-rule:nonzero;stroke:none"
             id="path38"
             inkscape:connector-curvature="0" /></g><g
           id="g40"
           transform="translate(97.509169,192.21793)"><path
             d="m 0,0 -9.441,1.453 9.112,-3.314 C -0.043,-0.884 0,0 0,0"
             style="fill:#9fb1bf;fill-opacity:0.94117647;fill-rule:nonzero;stroke:none"
             id="path42"
             inkscape:connector-curvature="0" /></g><g
           id="g44"
           transform="translate(82.801168,199.84383)"><path
             d="m 0,0 c -7.082,-2.359 -7.808,-8.716 -7.808,-8.716 l 3.801,-2.307 c 0.786,2.929 2.588,8.181 6.132,12.21 z"
             style="fill:#9fb1bf;fill-opacity:1;fill-rule:nonzero;stroke:none"
             id="path46"
             inkscape:connector-curvature="0" /></g><g
           id="g48"
           transform="translate(51.245968,246.21693)"><path
             d="m 0,0 c -1.841,-1.488 -3.468,-3.113 -4.152,-4.607 0,0 -0.991,-4.315 -0.405,-7.514 l 13.63,-6.687 C -1.47,-12.742 -1.317,-4.734 0,0"
             style="fill:#9fb1bf;fill-opacity:1;fill-rule:nonzero;stroke:none"
             id="path50"
             inkscape:connector-curvature="0" /></g><g
           id="g52"
           transform="translate(66.371968,188.68763)"><path
             d="m 0,0 3.964,2.423 c 0,0 -0.726,6.331 -7.809,8.69 l -5.229,2.899 H -9.111 C -2.207,10.012 -0.418,3.824 0,0"
             style="fill:#9fb1bf;fill-opacity:1;fill-rule:nonzero;stroke:none"
             id="path54"
             inkscape:connector-curvature="0" /></g><g
           id="g56"
           transform="translate(56.551668,193.69933)"><path
             d="m 0,0 -8.732,-1.412 c 0,0 0.116,-2.398 1.273,-3.653 L 0.709,0 Z"
             style="fill:#9fb1bf;fill-opacity:1;fill-rule:nonzero;stroke:none"
             id="path58"
             inkscape:connector-curvature="0" /></g><g
           id="g60"
           transform="translate(96.566768,199.56653)"><path
             d="m 0,0 c -3.323,7.324 -8.018,13.233 -8.018,13.233 7.164,-0.813 14.439,4.21 18.265,7.409 0.374,0.882 0.502,1.426 0.502,1.426 L 2.047,29.137 C 1.131,16.202 -6.936,16.729 -10.71,17.706 l -0.513,-5.263 -2.36,-2.906 -0.361,8.895 c -6.719,4.539 -5.082,9.892 -5.082,9.892 0.908,-4.449 5.27,-6.273 5.27,-6.273 l 1.463,5.43 4.852,2.381 c 6.264,5.917 5.793,12.825 4.659,16.999 -3.478,2.752 -7.583,4.987 -7.583,4.987 L -23.952,44.63 -37.49,51.848 c 0,0 -4.307,-2.35 -7.831,-5.198 -1.317,-4.734 -1.47,-12.742 9.073,-18.807 l 0.735,-0.362 1.464,-5.43 c 0,0 4.362,1.824 5.271,6.273 0,0 1.636,-5.353 -5.082,-9.892 l -0.362,-8.895 -2.36,2.906 -0.518,5.313 c -9.586,-3.279 -12.096,6.89 -12.73,11.39 l -0.007,0.003 -8.716,-7.081 c 0,0 0.06,-0.257 0.218,-0.702 3.511,-3.165 11.43,-9.313 18.685,-7.897 0,0 -4.834,-8.002 -8.409,-15.179 l -0.326,-2.189 9.079,-1.927 -0.709,-0.041 h 0.709 l -8.168,-5.1 c 0.292,-0.316 0.648,-0.595 1.087,-0.705 l 8.534,1.798 -0.885,-5.194 c 1.723,0.219 4.121,1.152 7.422,3.547 l 1.121,0.644 c -0.418,3.824 -2.207,10.01 -9.111,14.01 h 0.037 l -0.944,0.56 c 0,0 1.957,2.922 7.585,0.018 l 8.676,-3.805 8.725,3.819 c 5.629,2.904 7.635,0.002 7.635,0.002 l -4.049,-2.263 c -3.544,-4.03 -5.345,-9.281 -6.132,-12.21 l 1.284,-0.779 c 3.301,-2.394 5.699,-3.333 7.423,-3.551 l -0.886,5.185 8.534,-1.816 c 1.131,0.282 1.723,1.444 2.031,2.497 l -9.112,3.314 9.079,1.997 z"
             style="fill:#e4e9ec;fill-opacity:1;fill-rule:nonzero;stroke:none"
             id="path62"
             inkscape:connector-curvature="0" /></g><g
           id="g64"
           transform="translate(89.125368,229.42833)"><path
             d="M 0,0 9.515,4.667 C 10.1,7.867 9.086,12.181 9.086,12.181 8.367,13.748 6.612,15.455 4.659,17 5.793,12.825 6.265,5.917 0,0"
             style="fill:#9fb1bf;fill-opacity:1;fill-rule:nonzero;stroke:none"
             id="path66"
             inkscape:connector-curvature="0" /></g><g
           id="g68"
           transform="translate(59.466668,217.32233)"><path
             d="m 0,0 -0.208,2.132 c 0,0 -7.446,-0.725 -8.716,7.264 L -12.73,11.39 C -12.096,6.89 -9.585,-3.279 0,0"
             style="fill:#9fb1bf;fill-opacity:1;fill-rule:nonzero;stroke:none"
             id="path70"
             inkscape:connector-curvature="0" /></g><g
           id="g72"
           transform="translate(38.231868,220.93223)"><path
             d="m 0,0 c 0.717,-2.019 3.466,-7.958 11.948,-11.828 l -1.672,-11.248 c 3.575,7.177 8.409,15.179 8.409,15.179 C 11.43,-9.313 3.511,-3.165 0,0"
             style="fill:#9fb1bf;fill-opacity:1;fill-rule:nonzero;stroke:none"
             id="path74"
             inkscape:connector-curvature="0" /></g><g
           id="g76"
           transform="translate(72.451568,182.34773)"
           style="fill:#e4e9ec;fill-opacity:1"><path
             d="m 0,0 c -5.027,0 -9.006,-4.31 -10.651,-6.418 0.427,-0.804 1.057,-1.585 1.983,-2.258 l 1.567,3.838 c 0,0 0.171,-6.447 7.171,-7.049 v -0.033 c 0,0.004 -0.059,0.011 0,0.017 0.06,-0.006 0,-0.013 0,-0.017 v 0.033 c 5,0.602 7.105,7.049 7.105,7.049 l 1.477,-3.838 c 1.01,0.736 1.682,1.599 2.106,2.479 C 7.609,-1.205 0,0 0,0"
             style="fill:#e4e9ec;fill-opacity:1;fill-rule:nonzero;stroke:none"
             id="path78"
             inkscape:connector-curvature="0" /></g><g
           id="g80"
           transform="translate(83.621468,181.50403)"><path
             d="M 0,0 -11.1,5.982 V 6.174 6.079 6.174 5.982 L -22.26,0 c 0,0 -0.913,-2.908 0.504,-5.574 1.647,2.108 5.591,6.418 10.618,6.418 0,0 7.582,-1.205 10.732,-6.198 C 0.852,-2.752 0,0 0,0"
             style="fill:#9fb1bf;fill-opacity:1;fill-rule:nonzero;stroke:none"
             id="path82"
             inkscape:connector-curvature="0" /></g><g
           id="g84"
           transform="translate(103.52677,294.32723)" /></g></g></g></svg>
